<?xml version="1.0" encoding="UTF-8"?>
<svg xmlns="http://www.w3.org/2000/svg" xmlns:xlink="http://www.w3.org/1999/xlink" width="353pt" height="336pt" viewBox="0 0 353 336" version="1.1">
<g id="surface7">
<path style="fill:none;stroke-width:2;stroke-linecap:butt;stroke-linejoin:miter;stroke:rgb(14.99939%,28.999329%,50%);stroke-opacity:0.7;stroke-miterlimit:3.25;" d="M 12.238281 136.820312 L 74.195312 327.503906 "/>
<path style="fill:none;stroke-width:2;stroke-linecap:butt;stroke-linejoin:miter;stroke:rgb(14.99939%,28.999329%,50%);stroke-opacity:0.7;stroke-miterlimit:3.25;" d="M 14.167969 135.417969 L 280.484375 328.910156 "/>
<path style="fill:none;stroke-width:2;stroke-linecap:butt;stroke-linejoin:miter;stroke:rgb(14.99939%,28.999329%,50%);stroke-opacity:0.7;stroke-miterlimit:3.25;" d="M 14.90625 133.148438 L 344.09375 133.148438 "/>
<path style="fill:none;stroke-width:2;stroke-linecap:butt;stroke-linejoin:miter;stroke:rgb(14.99939%,28.999329%,50%);stroke-opacity:0.7;stroke-miterlimit:3.25;" d="M 14.167969 130.875 L 176.375 13.027344 "/>
<path style="fill:none;stroke-width:2;stroke-linecap:butt;stroke-linejoin:miter;stroke:rgb(14.99939%,28.999329%,50%);stroke-opacity:0.7;stroke-miterlimit:3.25;" d="M 79.25 331.179688 L 279.75 331.179688 "/>
<path style="fill:none;stroke-width:2;stroke-linecap:butt;stroke-linejoin:miter;stroke:rgb(14.99939%,28.999329%,50%);stroke-opacity:0.7;stroke-miterlimit:3.25;" d="M 78.515625 328.910156 L 344.832031 135.417969 "/>
<path style="fill:none;stroke-width:2;stroke-linecap:butt;stroke-linejoin:miter;stroke:rgb(14.99939%,28.999329%,50%);stroke-opacity:0.7;stroke-miterlimit:3.25;" d="M 76.582031 327.503906 L 178.304688 14.429688 "/>
<path style="fill:none;stroke-width:2;stroke-linecap:butt;stroke-linejoin:miter;stroke:rgb(14.99939%,28.999329%,50%);stroke-opacity:0.7;stroke-miterlimit:3.25;" d="M 284.804688 327.503906 L 346.761719 136.820312 "/>
<path style="fill:none;stroke-width:2;stroke-linecap:butt;stroke-linejoin:miter;stroke:rgb(14.99939%,28.999329%,50%);stroke-opacity:0.7;stroke-miterlimit:3.25;" d="M 282.417969 327.503906 L 180.695312 14.429688 "/>
<path style="fill:none;stroke-width:2;stroke-linecap:butt;stroke-linejoin:miter;stroke:rgb(14.99939%,28.999329%,50%);stroke-opacity:0.7;stroke-miterlimit:3.25;" d="M 344.832031 130.875 L 182.625 13.027344 "/>
<path style="fill-rule:evenodd;fill:rgb(63.998413%,70.399475%,79.998779%);fill-opacity:1;stroke-width:1;stroke-linecap:square;stroke-linejoin:miter;stroke:rgb(0%,0%,0%);stroke-opacity:0.7;stroke-miterlimit:3.25;" d="M 14.863281 133 C 14.863281 131.976562 14.457031 130.992188 13.730469 130.269531 C 13.007812 129.542969 12.023438 129.136719 11 129.136719 C 9.976562 129.136719 8.992188 129.542969 8.269531 130.269531 C 7.542969 130.992188 7.136719 131.976562 7.136719 133 C 7.136719 134.023438 7.542969 135.007812 8.269531 135.730469 C 8.992188 136.457031 9.976562 136.863281 11 136.863281 C 12.023438 136.863281 13.007812 136.457031 13.730469 135.730469 C 14.457031 135.007812 14.863281 134.023438 14.863281 133 Z M 14.863281 133 "/>
<path style="fill-rule:evenodd;fill:rgb(63.998413%,70.399475%,79.998779%);fill-opacity:1;stroke-width:1;stroke-linecap:square;stroke-linejoin:miter;stroke:rgb(0%,0%,0%);stroke-opacity:0.7;stroke-miterlimit:3.25;" d="M 78.863281 331 C 78.863281 329.976562 78.457031 328.992188 77.730469 328.269531 C 77.007812 327.542969 76.023438 327.136719 75 327.136719 C 73.976562 327.136719 72.992188 327.542969 72.269531 328.269531 C 71.542969 328.992188 71.136719 329.976562 71.136719 331 C 71.136719 332.023438 71.542969 333.007812 72.269531 333.730469 C 72.992188 334.457031 73.976562 334.863281 75 334.863281 C 76.023438 334.863281 77.007812 334.457031 77.730469 333.730469 C 78.457031 333.007812 78.863281 332.023438 78.863281 331 Z M 78.863281 331 "/>
<path style="fill-rule:evenodd;fill:rgb(63.998413%,70.399475%,79.998779%);fill-opacity:1;stroke-width:1;stroke-linecap:square;stroke-linejoin:miter;stroke:rgb(0%,0%,0%);stroke-opacity:0.7;stroke-miterlimit:3.25;" d="M 287.863281 331 C 287.863281 329.976562 287.457031 328.992188 286.730469 328.269531 C 286.007812 327.542969 285.023438 327.136719 284 327.136719 C 282.976562 327.136719 281.992188 327.542969 281.269531 328.269531 C 280.542969 328.992188 280.136719 329.976562 280.136719 331 C 280.136719 332.023438 280.542969 333.007812 281.269531 333.730469 C 281.992188 334.457031 282.976562 334.863281 284 334.863281 C 285.023438 334.863281 286.007812 334.457031 286.730469 333.730469 C 287.457031 333.007812 287.863281 332.023438 287.863281 331 Z M 287.863281 331 "/>
<path style="fill-rule:evenodd;fill:rgb(63.998413%,70.399475%,79.998779%);fill-opacity:1;stroke-width:1;stroke-linecap:square;stroke-linejoin:miter;stroke:rgb(0%,0%,0%);stroke-opacity:0.7;stroke-miterlimit:3.25;" d="M 351.863281 133 C 351.863281 131.976562 351.457031 130.992188 350.730469 130.269531 C 350.007812 129.542969 349.023438 129.136719 348 129.136719 C 346.976562 129.136719 345.992188 129.542969 345.269531 130.269531 C 344.542969 130.992188 344.136719 131.976562 344.136719 133 C 344.136719 134.023438 344.542969 135.007812 345.269531 135.730469 C 345.992188 136.457031 346.976562 136.863281 348 136.863281 C 349.023438 136.863281 350.007812 136.457031 350.730469 135.730469 C 351.457031 135.007812 351.863281 134.023438 351.863281 133 Z M 351.863281 133 "/>
<path style="fill-rule:evenodd;fill:rgb(63.998413%,70.399475%,79.998779%);fill-opacity:1;stroke-width:1;stroke-linecap:square;stroke-linejoin:miter;stroke:rgb(0%,0%,0%);stroke-opacity:0.7;stroke-miterlimit:3.25;" d="M 182.863281 11 C 182.863281 9.976562 182.457031 8.992188 181.730469 8.269531 C 181.007812 7.542969 180.023438 7.136719 179 7.136719 C 177.976562 7.136719 176.992188 7.542969 176.269531 8.269531 C 175.542969 8.992188 175.136719 9.976562 175.136719 11 C 175.136719 12.023438 175.542969 13.007812 176.269531 13.730469 C 176.992188 14.457031 177.976562 14.863281 179 14.863281 C 180.023438 14.863281 181.007812 14.457031 181.730469 13.730469 C 182.457031 13.007812 182.863281 12.023438 182.863281 11 Z M 182.863281 11 "/>
</g>
</svg>
