<?xml version="1.0" encoding="utf-8"?>
<!-- Generator: Adobe Illustrator 21.1.0, SVG Export Plug-In . SVG Version: 6.00 Build 0)  -->
<svg version="1.1" id="Layer_1" xmlns="http://www.w3.org/2000/svg" xmlns:xlink="http://www.w3.org/1999/xlink" x="0px" y="0px"
	 viewBox="0 0 353 353" style="enable-background:new 0 0 353 353;" xml:space="preserve">
<style type="text/css">
	.st0{opacity:0.7;fill:none;stroke:#264A80;stroke-width:2;stroke-miterlimit:3.25;}
	.st1{fill:none;stroke:#264A80;stroke-width:2;stroke-miterlimit:3.25;stroke-opacity:0.7;}
	.st2{fill:#A3B4CC;stroke:#000000;stroke-linecap:square;stroke-miterlimit:3.25;stroke-opacity:0.7;}
</style>
<g>
	<path class="st0" d="M347.8,179.5c-119.4,48.9-227.7,59.4-337.3-0.7"/>
	<g id="surface7">
		<path class="st1" d="M182.8,346l112.1-46.4"/>
		<path class="st1" d="M294.6,298.2H64"/>
		<path class="st1" d="M179,10.3l-0.2,168.5"/>
		<path class="st1" d="M178.8,178.8l0.7,169"/>
		<path class="st1" d="M344.3,180.5L63.7,296.7"/>
		<path class="st1" d="M294.6,59.8H64"/>
		<path class="st1" d="M294.9,61.3L14.3,177.5"/>
		<path class="st1" d="M175.8,11.9L63.7,58.4"/>
		<path class="st2" d="M176.8,345.1c-0.7,0.7-1.1,1.7-1.1,2.7c0,1,0.4,2,1.1,2.7s1.7,1.1,2.7,1.1s2-0.4,2.7-1.1s1.1-1.7,1.1-2.7
			c0-1-0.4-2-1.1-2.7s-1.7-1.1-2.7-1.1S177.5,344.4,176.8,345.1z"/>
		<path class="st2" d="M295.6,295.6c-0.7,0.7-1.1,1.7-1.1,2.7c0,1,0.4,2,1.1,2.7s1.7,1.1,2.7,1.1c1,0,2-0.4,2.7-1.1s1.1-1.7,1.1-2.7
			c0-1-0.4-2-1.1-2.7s-1.7-1.1-2.7-1.1C297.3,294.5,296.3,294.9,295.6,295.6z"/>
		<path class="st2" d="M345.1,176.8c-0.7,0.7-1.1,1.7-1.1,2.7s0.4,2,1.1,2.7s1.7,1.1,2.7,1.1c1,0,2-0.4,2.7-1.1s1.1-1.7,1.1-2.7
			s-0.4-2-1.1-2.7s-1.7-1.1-2.7-1.1C346.8,175.7,345.8,176.1,345.1,176.8z"/>
		<path class="st2" d="M295.6,56.6c-0.7,0.7-1.1,1.7-1.1,2.7s0.4,2,1.1,2.7s1.7,1.1,2.7,1.1c1,0,2-0.4,2.7-1.1s1.1-1.7,1.1-2.7
			s-0.4-2-1.1-2.7c-0.7-0.7-1.7-1.1-2.7-1.1C297.3,55.5,296.3,55.9,295.6,56.6z"/>
		<path class="st2" d="M176.1,7.8c-0.7,0.7-1.1,1.7-1.1,2.7s0.4,2,1.1,2.7c0.7,0.7,1.7,1.1,2.7,1.1s2-0.4,2.7-1.1
			c0.7-0.7,1.1-1.7,1.1-2.7s-0.4-2-1.1-2.7c-0.7-0.7-1.7-1.1-2.7-1.1S176.8,7.1,176.1,7.8z"/>
		<path class="st2" d="M57.3,57.3C56.6,58,56.2,59,56.2,60c0,1,0.4,2,1.1,2.7s1.7,1.1,2.7,1.1s2-0.4,2.7-1.1s1.1-1.7,1.1-2.7
			c0-1-0.4-2-1.1-2.7S61,56.2,60,56.2S58,56.6,57.3,57.3z"/>
		<path class="st2" d="M7.8,176.1c-0.7,0.7-1.1,1.7-1.1,2.7s0.4,2,1.1,2.7s1.7,1.1,2.7,1.1s2-0.4,2.7-1.1s1.1-1.7,1.1-2.7
			s-0.4-2-1.1-2.7s-1.7-1.1-2.7-1.1S8.5,175.4,7.8,176.1z"/>
		<path class="st2" d="M58,295.6c-0.7,0.7-1.1,1.7-1.1,2.7c0,1,0.4,2,1.1,2.7s1.7,1.1,2.7,1.1c1,0,2-0.4,2.7-1.1
			c0.7-0.7,1.1-1.7,1.1-2.7c0-1-0.4-2-1.1-2.7c-0.7-0.7-1.7-1.1-2.7-1.1C59.7,294.5,58.7,294.9,58,295.6z"/>
		<path class="st2" d="M176.1,176.1c-0.7,0.7-1.1,1.7-1.1,2.7s0.4,2,1.1,2.7s1.7,1.1,2.7,1.1s2-0.4,2.7-1.1s1.1-1.7,1.1-2.7
			s-0.4-2-1.1-2.7s-1.7-1.1-2.7-1.1S176.8,175.4,176.1,176.1z"/>
	</g>
</g>
</svg>
