<?xml version="1.0" encoding="UTF-8"?>
<svg xmlns="http://www.w3.org/2000/svg" xmlns:xlink="http://www.w3.org/1999/xlink" width="353pt" height="344pt" viewBox="0 0 353 344" version="1.1">
<g id="surface28">
<path style="fill:none;stroke-width:2;stroke-linecap:butt;stroke-linejoin:miter;stroke:rgb(99.998474%,50%,0%);stroke-opacity:0.7;stroke-miterlimit:3.25;" d="M 46.78125 78.796875 L 252.089844 336.246094 "/>
<path style="fill:none;stroke-width:2;stroke-linecap:butt;stroke-linejoin:miter;stroke:rgb(99.998474%,50%,0%);stroke-opacity:0.7;stroke-miterlimit:3.25;" d="M 47.84375 77.460938 L 344.527344 220.335938 "/>
<path style="fill:none;stroke-width:2;stroke-linecap:butt;stroke-linejoin:miter;stroke:rgb(99.998474%,50%,0%);stroke-opacity:0.7;stroke-miterlimit:3.25;" d="M 14.855469 222 L 344.144531 222 "/>
<path style="fill:none;stroke-width:2;stroke-linecap:butt;stroke-linejoin:miter;stroke:rgb(99.998474%,50%,0%);stroke-opacity:0.7;stroke-miterlimit:3.25;" d="M 14.472656 220.335938 L 311.15625 77.460938 "/>
<path style="fill:none;stroke-width:2;stroke-linecap:butt;stroke-linejoin:miter;stroke:rgb(99.998474%,50%,0%);stroke-opacity:0.7;stroke-miterlimit:3.25;" d="M 106.910156 336.246094 L 312.21875 78.796875 "/>
<path style="fill:none;stroke-width:2;stroke-linecap:butt;stroke-linejoin:miter;stroke:rgb(99.998474%,50%,0%);stroke-opacity:0.7;stroke-miterlimit:3.25;" d="M 105.371094 335.507812 L 178.644531 14.472656 "/>
<path style="fill:none;stroke-width:2;stroke-linecap:butt;stroke-linejoin:miter;stroke:rgb(99.998474%,50%,0%);stroke-opacity:0.7;stroke-miterlimit:3.25;" d="M 253.628906 335.507812 L 180.355469 14.472656 "/>
<path style="fill-rule:evenodd;fill:rgb(63.998413%,70.399475%,79.998779%);fill-opacity:1;stroke-width:1;stroke-linecap:square;stroke-linejoin:miter;stroke:rgb(0%,0%,0%);stroke-opacity:0.7;stroke-miterlimit:3.25;" d="M 47.835938 76 C 47.835938 74.980469 47.433594 74.007812 46.714844 73.285156 C 45.992188 72.566406 45.019531 72.164062 44 72.164062 C 42.980469 72.164062 42.007812 72.566406 41.285156 73.285156 C 40.566406 74.007812 40.164062 74.980469 40.164062 76 C 40.164062 77.019531 40.566406 77.992188 41.285156 78.714844 C 42.007812 79.433594 42.980469 79.835938 44 79.835938 C 45.019531 79.835938 45.992188 79.433594 46.714844 78.714844 C 47.433594 77.992188 47.835938 77.019531 47.835938 76 Z M 47.835938 76 "/>
<path style="fill-rule:evenodd;fill:rgb(63.998413%,70.399475%,79.998779%);fill-opacity:1;stroke-width:1;stroke-linecap:square;stroke-linejoin:miter;stroke:rgb(0%,0%,0%);stroke-opacity:0.7;stroke-miterlimit:3.25;" d="M 14.835938 222 C 14.835938 220.980469 14.433594 220.007812 13.714844 219.285156 C 12.992188 218.566406 12.019531 218.164062 11 218.164062 C 9.980469 218.164062 9.007812 218.566406 8.285156 219.285156 C 7.566406 220.007812 7.164062 220.980469 7.164062 222 C 7.164062 223.019531 7.566406 223.992188 8.285156 224.714844 C 9.007812 225.433594 9.980469 225.835938 11 225.835938 C 12.019531 225.835938 12.992188 225.433594 13.714844 224.714844 C 14.433594 223.992188 14.835938 223.019531 14.835938 222 Z M 14.835938 222 "/>
<path style="fill-rule:evenodd;fill:rgb(63.998413%,70.399475%,79.998779%);fill-opacity:1;stroke-width:1;stroke-linecap:square;stroke-linejoin:miter;stroke:rgb(0%,0%,0%);stroke-opacity:0.7;stroke-miterlimit:3.25;" d="M 108.835938 339 C 108.835938 337.980469 108.433594 337.007812 107.714844 336.285156 C 106.992188 335.566406 106.019531 335.164062 105 335.164062 C 103.980469 335.164062 103.007812 335.566406 102.285156 336.285156 C 101.566406 337.007812 101.164062 337.980469 101.164062 339 C 101.164062 340.019531 101.566406 340.992188 102.285156 341.714844 C 103.007812 342.433594 103.980469 342.835938 105 342.835938 C 106.019531 342.835938 106.992188 342.433594 107.714844 341.714844 C 108.433594 340.992188 108.835938 340.019531 108.835938 339 Z M 108.835938 339 "/>
<path style="fill-rule:evenodd;fill:rgb(63.998413%,70.399475%,79.998779%);fill-opacity:1;stroke-width:1;stroke-linecap:square;stroke-linejoin:miter;stroke:rgb(0%,0%,0%);stroke-opacity:0.7;stroke-miterlimit:3.25;" d="M 257.835938 339 C 257.835938 337.980469 257.433594 337.007812 256.714844 336.285156 C 255.992188 335.566406 255.019531 335.164062 254 335.164062 C 252.980469 335.164062 252.007812 335.566406 251.285156 336.285156 C 250.566406 337.007812 250.164062 337.980469 250.164062 339 C 250.164062 340.019531 250.566406 340.992188 251.285156 341.714844 C 252.007812 342.433594 252.980469 342.835938 254 342.835938 C 255.019531 342.835938 255.992188 342.433594 256.714844 341.714844 C 257.433594 340.992188 257.835938 340.019531 257.835938 339 Z M 257.835938 339 "/>
<path style="fill-rule:evenodd;fill:rgb(63.998413%,70.399475%,79.998779%);fill-opacity:1;stroke-width:1;stroke-linecap:square;stroke-linejoin:miter;stroke:rgb(0%,0%,0%);stroke-opacity:0.7;stroke-miterlimit:3.25;" d="M 351.835938 222 C 351.835938 220.980469 351.433594 220.007812 350.714844 219.285156 C 349.992188 218.566406 349.019531 218.164062 348 218.164062 C 346.980469 218.164062 346.007812 218.566406 345.285156 219.285156 C 344.566406 220.007812 344.164062 220.980469 344.164062 222 C 344.164062 223.019531 344.566406 223.992188 345.285156 224.714844 C 346.007812 225.433594 346.980469 225.835938 348 225.835938 C 349.019531 225.835938 349.992188 225.433594 350.714844 224.714844 C 351.433594 223.992188 351.835938 223.019531 351.835938 222 Z M 351.835938 222 "/>
<path style="fill-rule:evenodd;fill:rgb(63.998413%,70.399475%,79.998779%);fill-opacity:1;stroke-width:1;stroke-linecap:square;stroke-linejoin:miter;stroke:rgb(0%,0%,0%);stroke-opacity:0.7;stroke-miterlimit:3.25;" d="M 318.835938 76 C 318.835938 74.980469 318.433594 74.007812 317.714844 73.285156 C 316.992188 72.566406 316.019531 72.164062 315 72.164062 C 313.980469 72.164062 313.007812 72.566406 312.285156 73.285156 C 311.566406 74.007812 311.164062 74.980469 311.164062 76 C 311.164062 77.019531 311.566406 77.992188 312.285156 78.714844 C 313.007812 79.433594 313.980469 79.835938 315 79.835938 C 316.019531 79.835938 316.992188 79.433594 317.714844 78.714844 C 318.433594 77.992188 318.835938 77.019531 318.835938 76 Z M 318.835938 76 "/>
<path style="fill-rule:evenodd;fill:rgb(63.998413%,70.399475%,79.998779%);fill-opacity:1;stroke-width:1;stroke-linecap:square;stroke-linejoin:miter;stroke:rgb(0%,0%,0%);stroke-opacity:0.7;stroke-miterlimit:3.25;" d="M 182.835938 11 C 182.835938 9.980469 182.433594 9.007812 181.714844 8.285156 C 180.992188 7.566406 180.019531 7.164062 179 7.164062 C 177.980469 7.164062 177.007812 7.566406 176.285156 8.285156 C 175.566406 9.007812 175.164062 9.980469 175.164062 11 C 175.164062 12.019531 175.566406 12.992188 176.285156 13.714844 C 177.007812 14.433594 177.980469 14.835938 179 14.835938 C 180.019531 14.835938 180.992188 14.433594 181.714844 13.714844 C 182.433594 12.992188 182.835938 12.019531 182.835938 11 Z M 182.835938 11 "/>
</g>
</svg>
