<?xml version="1.0" encoding="utf-8"?>
<!-- Generator: Adobe Illustrator 21.1.0, SVG Export Plug-In . SVG Version: 6.00 Build 0)  -->
<svg version="1.1" id="Layer_1" xmlns="http://www.w3.org/2000/svg" xmlns:xlink="http://www.w3.org/1999/xlink" x="0px" y="0px"
	 viewBox="0 0 353 353" style="enable-background:new 0 0 353 353;" xml:space="preserve">
<style type="text/css">
	.st0{opacity:0.7;fill:none;stroke:#FF8000;stroke-width:2;stroke-miterlimit:3.25;}
	.st1{fill:none;stroke:#FF8000;stroke-width:2;stroke-miterlimit:3.25;stroke-opacity:0.7;}
	.st2{fill:#A3B4CC;stroke:#000000;stroke-linecap:square;stroke-miterlimit:3.25;stroke-opacity:0.7;}
</style>
<g>
	<path class="st0" d="M178.8,347.8c-48.9-119.4-59.4-227.7,0.7-337.3"/>
	<g id="surface7">
		<path class="st1" d="M12.2,182.8l46.4,112.1"/>
		<path class="st1" d="M60.1,294.6V64"/>
		<path class="st1" d="M348,179l-168.5-0.2"/>
		<path class="st1" d="M179.5,178.8l-169,0.7"/>
		<path class="st1" d="M177.8,344.3L61.6,63.7"/>
		<path class="st1" d="M298.5,294.6V64"/>
		<path class="st1" d="M297,294.9L180.8,14.3"/>
		<path class="st1" d="M346.3,175.8L299.9,63.7"/>
		<path class="st2" d="M13.2,176.8c-0.7-0.7-1.7-1.1-2.7-1.1s-2,0.4-2.7,1.1s-1.1,1.7-1.1,2.7s0.4,2,1.1,2.7s1.7,1.1,2.7,1.1
			s2-0.4,2.7-1.1s1.1-1.7,1.1-2.7S13.9,177.5,13.2,176.8z"/>
		<path class="st2" d="M62.7,295.6c-0.7-0.7-1.7-1.1-2.7-1.1s-2,0.4-2.7,1.1s-1.1,1.7-1.1,2.7c0,1,0.4,2,1.1,2.7s1.7,1.1,2.7,1.1
			s2-0.4,2.7-1.1s1.1-1.7,1.1-2.7C63.8,297.3,63.4,296.3,62.7,295.6z"/>
		<path class="st2" d="M181.5,345.1c-0.7-0.7-1.7-1.1-2.7-1.1s-2,0.4-2.7,1.1s-1.1,1.7-1.1,2.7c0,1,0.4,2,1.1,2.7s1.7,1.1,2.7,1.1
			s2-0.4,2.7-1.1s1.1-1.7,1.1-2.7C182.6,346.8,182.2,345.8,181.5,345.1z"/>
		<path class="st2" d="M301.7,295.6c-0.7-0.7-1.7-1.1-2.7-1.1c-1,0-2,0.4-2.7,1.1s-1.1,1.7-1.1,2.7c0,1,0.4,2,1.1,2.7
			s1.7,1.1,2.7,1.1c1,0,2-0.4,2.7-1.1s1.1-1.7,1.1-2.7C302.8,297.3,302.4,296.3,301.7,295.6z"/>
		<path class="st2" d="M350.5,176.1c-0.7-0.7-1.7-1.1-2.7-1.1c-1,0-2,0.4-2.7,1.1s-1.1,1.7-1.1,2.7s0.4,2,1.1,2.7s1.7,1.1,2.7,1.1
			c1,0,2-0.4,2.7-1.1s1.1-1.7,1.1-2.7S351.2,176.8,350.5,176.1z"/>
		<path class="st2" d="M301,57.3c-0.7-0.7-1.7-1.1-2.7-1.1c-1,0-2,0.4-2.7,1.1s-1.1,1.7-1.1,2.7c0,1,0.4,2,1.1,2.7s1.7,1.1,2.7,1.1
			c1,0,2-0.4,2.7-1.1s1.1-1.7,1.1-2.7C302.1,59,301.7,58,301,57.3z"/>
		<path class="st2" d="M182.2,7.8c-0.7-0.7-1.7-1.1-2.7-1.1s-2,0.4-2.7,1.1c-0.7,0.7-1.1,1.7-1.1,2.7s0.4,2,1.1,2.7
			c0.7,0.7,1.7,1.1,2.7,1.1s2-0.4,2.7-1.1c0.7-0.7,1.1-1.7,1.1-2.7S182.9,8.5,182.2,7.8z"/>
		<path class="st2" d="M62.7,58C62,57.3,61,56.9,60,56.9s-2,0.4-2.7,1.1s-1.1,1.7-1.1,2.7c0,1,0.4,2,1.1,2.7
			c0.7,0.7,1.7,1.1,2.7,1.1s2-0.4,2.7-1.1c0.7-0.7,1.1-1.7,1.1-2.7C63.8,59.7,63.4,58.7,62.7,58z"/>
		<path class="st2" d="M182.2,176.1c-0.7-0.7-1.7-1.1-2.7-1.1s-2,0.4-2.7,1.1s-1.1,1.7-1.1,2.7s0.4,2,1.1,2.7s1.7,1.1,2.7,1.1
			s2-0.4,2.7-1.1s1.1-1.7,1.1-2.7S182.9,176.8,182.2,176.1z"/>
	</g>
</g>
</svg>
