<?xml version="1.0" encoding="utf-8"?>
<!-- Generator: Adobe Illustrator 21.1.0, SVG Export Plug-In . SVG Version: 6.00 Build 0)  -->
<svg version="1.1" id="Layer_1" xmlns="http://www.w3.org/2000/svg" xmlns:xlink="http://www.w3.org/1999/xlink" x="0px" y="0px"
	 viewBox="0 0 353 353" style="enable-background:new 0 0 353 353;" xml:space="preserve">
<style type="text/css">
	.st0{opacity:0.7;fill:none;stroke:#00AA00;stroke-width:2;stroke-miterlimit:3.25;enable-background:new    ;}
	.st1{fill:none;stroke:#00AA00;stroke-width:2;stroke-miterlimit:3.25;stroke-opacity:0.7;}
	.st2{fill:#A3B4CC;stroke:#000000;stroke-linecap:square;stroke-miterlimit:3.25;stroke-opacity:0.7;}
</style>
<g>
	<path class="st0" d="M298.1,298.6c-119-49.8-203-119-238-239"/>
	<g id="surface7">
		<path class="st1" d="M63.7,299.8l112.1,46.4"/>
		<path class="st1" d="M176.7,345L13.5,181.8"/>
		<path class="st1" d="M298.4,59.6l-119.3,119"/>
		<path class="st1" d="M179.1,178.6l-119,120"/>
		<path class="st1" d="M295,296.8L14.4,180.6"/>
		<path class="st1" d="M345.2,176.5L182.1,13.3"/>
		<path class="st1" d="M344.3,177.7L63.7,61.5"/>
		<path class="st1" d="M295,58.5L182.9,12.1"/>
		<path class="st2" d="M60.1,294.8c-1,0-2,0.4-2.7,1.1s-1.1,1.7-1.1,2.7s0.4,2,1.1,2.7s1.7,1.1,2.7,1.1s2-0.4,2.7-1.1
			s1.1-1.7,1.1-2.7s-0.4-2-1.1-2.7S61.2,294.8,60.1,294.8z"/>
		<path class="st2" d="M179.1,343.8c-1,0-2,0.4-2.7,1.1s-1.1,1.7-1.1,2.7s0.4,2,1.1,2.7s1.7,1.1,2.7,1.1s2-0.4,2.7-1.1
			s1.1-1.7,1.1-2.7s-0.4-2-1.1-2.7S180.2,343.8,179.1,343.8z"/>
		<path class="st2" d="M298.1,294.8c-1,0-2,0.4-2.7,1.1s-1.1,1.7-1.1,2.7s0.4,2,1.1,2.7s1.7,1.1,2.7,1.1s2-0.4,2.7-1.1
			s1.1-1.7,1.1-2.7s-0.4-2-1.1-2.7S299.2,294.8,298.1,294.8z"/>
		<path class="st2" d="M348.1,174.8c-1,0-2,0.4-2.7,1.1s-1.1,1.7-1.1,2.7s0.4,2,1.1,2.7s1.7,1.1,2.7,1.1s2-0.4,2.7-1.1
			s1.1-1.7,1.1-2.7s-0.4-2-1.1-2.7S349.2,174.8,348.1,174.8z"/>
		<path class="st2" d="M298.1,55.8c-1,0-2,0.4-2.7,1.1s-1.1,1.7-1.1,2.7s0.4,2,1.1,2.7s1.7,1.1,2.7,1.1s2-0.4,2.7-1.1
			s1.1-1.7,1.1-2.7s-0.4-2-1.1-2.7S299.2,55.8,298.1,55.8z"/>
		<path class="st2" d="M179.1,6.8c-1,0-2,0.4-2.7,1.1s-1.1,1.7-1.1,2.7s0.4,2,1.1,2.7s1.7,1.1,2.7,1.1s2-0.4,2.7-1.1
			s1.1-1.7,1.1-2.7s-0.4-2-1.1-2.7S180.2,6.8,179.1,6.8z"/>
		<path class="st2" d="M60.1,55.8c-1,0-2,0.4-2.7,1.1s-1.1,1.7-1.1,2.7s0.4,2,1.1,2.7s1.7,1.1,2.7,1.1s2-0.4,2.7-1.1
			s1.1-1.7,1.1-2.7s-0.4-2-1.1-2.7S61.2,55.8,60.1,55.8z"/>
		<path class="st2" d="M11.1,175.8c-1,0-2,0.4-2.7,1.1c-0.7,0.7-1.1,1.7-1.1,2.7s0.4,2,1.1,2.7s1.7,1.1,2.7,1.1s2-0.4,2.7-1.1
			c0.7-0.7,1.1-1.7,1.1-2.7s-0.4-2-1.1-2.7C13.1,176.2,12.2,175.8,11.1,175.8z"/>
		<path class="st2" d="M179.1,174.8c-1,0-2,0.4-2.7,1.1s-1.1,1.7-1.1,2.7s0.4,2,1.1,2.7s1.7,1.1,2.7,1.1s2-0.4,2.7-1.1
			c0.7-0.7,1.1-1.7,1.1-2.7s-0.4-2-1.1-2.7C181.1,175.2,180.2,174.8,179.1,174.8z"/>
	</g>
</g>
</svg>
