<?xml version="1.0" encoding="UTF-8" standalone="no"?>
<!-- Created with Inkscape (http://www.inkscape.org/) -->

<svg
   width="114.44185mm"
   height="23.045208mm"
   viewBox="0 0 114.44185 23.045208"
   version="1.1"
   id="svg5"
   xmlns="http://www.w3.org/2000/svg"
   xmlns:svg="http://www.w3.org/2000/svg">
  <defs
     id="defs2">
    <clipPath
       clipPathUnits="userSpaceOnUse"
       id="clipPath838">
      <path
         d="m 17.671,685.74 h 575.63 V 990.782 H 17.671 Z"
         id="path836" />
    </clipPath>
    <clipPath
       clipPathUnits="userSpaceOnUse"
       id="clipPath852">
      <path
         d="M 0,1008 H 612 V 0 H 0 Z"
         id="path850" />
    </clipPath>
    <clipPath
       clipPathUnits="userSpaceOnUse"
       id="clipPath860">
      <path
         d="M 229.415,952.066 H 381.667 V 799.812 H 229.415 Z"
         id="path858" />
    </clipPath>
    <clipPath
       clipPathUnits="userSpaceOnUse"
       id="clipPath1432">
      <path
         d="M 209.594,773.769 H 400.741 V 733.323 H 209.594 Z"
         id="path1430" />
    </clipPath>
    <clipPath
       clipPathUnits="userSpaceOnUse"
       id="clipPath1672">
      <path
         d="M 0,1008 H 612 V 0 H 0 Z"
         id="path1670" />
    </clipPath>
    <clipPath
       clipPathUnits="userSpaceOnUse"
       id="clipPath4958">
      <path
         d="M 0,1008 H 612 V 0 H 0 Z"
         id="path4956" />
    </clipPath>
    <clipPath
       clipPathUnits="userSpaceOnUse"
       id="clipPath4976">
      <path
         d="M 0,1008 H 612 V 0 H 0 Z"
         id="path4974" />
    </clipPath>
    <clipPath
       clipPathUnits="userSpaceOnUse"
       id="clipPath4996">
      <path
         d="M 0,1008 H 612 V 0 H 0 Z"
         id="path4994" />
    </clipPath>
    <clipPath
       clipPathUnits="userSpaceOnUse"
       id="clipPath5014">
      <path
         d="M 0,1008 H 612 V 0 H 0 Z"
         id="path5012" />
    </clipPath>
    <clipPath
       clipPathUnits="userSpaceOnUse"
       id="clipPath5032">
      <path
         d="M 0,1008 H 612 V 0 H 0 Z"
         id="path5030" />
    </clipPath>
    <clipPath
       clipPathUnits="userSpaceOnUse"
       id="clipPath5052">
      <path
         d="M 0,1008 H 612 V 0 H 0 Z"
         id="path5050" />
    </clipPath>
    <clipPath
       clipPathUnits="userSpaceOnUse"
       id="clipPath5082">
      <path
         d="M 0,1008 H 612 V 0 H 0 Z"
         id="path5080" />
    </clipPath>
    <clipPath
       clipPathUnits="userSpaceOnUse"
       id="clipPath5706">
      <path
         d="M 0,1008 H 612 V 0 H 0 Z"
         id="path5704" />
    </clipPath>
    <clipPath
       clipPathUnits="userSpaceOnUse"
       id="clipPath5722">
      <path
         d="M 0,1008 H 612 V 0 H 0 Z"
         id="path5720" />
    </clipPath>
    <clipPath
       clipPathUnits="userSpaceOnUse"
       id="clipPath5740">
      <path
         d="M 0,1008 H 612 V 0 H 0 Z"
         id="path5738" />
    </clipPath>
    <clipPath
       clipPathUnits="userSpaceOnUse"
       id="clipPath5758">
      <path
         d="M 0,1008 H 612 V 0 H 0 Z"
         id="path5756" />
    </clipPath>
    <clipPath
       clipPathUnits="userSpaceOnUse"
       id="clipPath5776">
      <path
         d="M 0,1008 H 612 V 0 H 0 Z"
         id="path5774" />
    </clipPath>
    <clipPath
       clipPathUnits="userSpaceOnUse"
       id="clipPath9062">
      <path
         d="M 0,1008 H 612 V 0 H 0 Z"
         id="path9060" />
    </clipPath>
    <clipPath
       clipPathUnits="userSpaceOnUse"
       id="clipPath9070">
      <path
         d="M 61.8647,473.819 H 115.695 V 366.16 H 61.8647 Z"
         id="path9068" />
    </clipPath>
    <clipPath
       clipPathUnits="userSpaceOnUse"
       id="clipPath9086">
      <path
         d="m 169.524,473.819 h 53.83 V 366.16 h -53.83 z"
         id="path9084" />
    </clipPath>
    <clipPath
       clipPathUnits="userSpaceOnUse"
       id="clipPath9102">
      <path
         d="m 223.354,473.819 h 53.829 V 366.16 h -53.829 z"
         id="path9100" />
    </clipPath>
    <clipPath
       clipPathUnits="userSpaceOnUse"
       id="clipPath9118">
      <path
         d="m 277.183,473.819 h 53.83 V 366.16 h -53.83 z"
         id="path9116" />
    </clipPath>
    <clipPath
       clipPathUnits="userSpaceOnUse"
       id="clipPath9134">
      <path
         d="m 331.013,473.819 h 53.829 V 366.16 h -53.829 z"
         id="path9132" />
    </clipPath>
    <clipPath
       clipPathUnits="userSpaceOnUse"
       id="clipPath9150">
      <path
         d="M 438.729,473.819 H 492.56 V 366.16 h -53.831 z"
         id="path9148" />
    </clipPath>
    <clipPath
       clipPathUnits="userSpaceOnUse"
       id="clipPath9166">
      <path
         d="m 492.589,473.819 h 53.829 V 366.16 h -53.829 z"
         id="path9164" />
    </clipPath>
    <clipPath
       clipPathUnits="userSpaceOnUse"
       id="clipPath9196">
      <path
         d="M 0,1008 H 612 V 0 H 0 Z"
         id="path9194" />
    </clipPath>
    <clipPath
       clipPathUnits="userSpaceOnUse"
       id="clipPath9430">
      <path
         d="M 0,1008 H 612 V 0 H 0 Z"
         id="path9428" />
    </clipPath>
  </defs>
  <g
     id="layer1"
     transform="translate(-129.94746,135.65102)">
    <g
       id="g830"
       transform="matrix(0.35277777,0,0,-0.35277777,25.559715,296.53613)">
      <g
         id="g8926"
         transform="translate(157.95668,308.46246)">
        <g
           id="g9424">
          <g
             id="g9426"
             clip-path="url(#clipPath9430)">
            <g
               id="g11072">
              <g
                 id="g9432"
                 transform="translate(144.1846,907.0093)">
                <path
                   d="m 0,0 h -6.239 v 1.097 h 19.47 V 0 H 6.992 v -46.071 h 6.239 v -1.097 h -19.47 v 1.097 H 0 Z"
                   style="fill:#231f20;fill-opacity:1;fill-rule:nonzero;stroke:none"
                   id="path9434" />
              </g>
              <g
                 id="g9436"
                 transform="translate(180.1914,897.3433)">
                <path
                   d="M 0,0 H -0.137 L -6.855,-20.774 H 7.061 Z M 7.404,-21.872 H -7.267 l -2.811,-8.638 c -0.48,-1.371 -1.028,-3.016 -1.028,-4.181 0,-0.96 0.823,-1.714 3.017,-1.714 h 3.565 v -1.097 h -14.123 v 1.097 h 2.194 c 2.125,0 3.016,0.205 4.319,4.044 L 2.605,11.86 h 0.754 l 16.66,-48.265 h 5.69 v -1.097 H 5.622 v 1.097 h 6.719 z"
                   style="fill:#231f20;fill-opacity:1;fill-rule:nonzero;stroke:none"
                   id="path9438" />
              </g>
              <g
                 id="g9440"
                 transform="translate(209.1372,876.7739)">
                <path
                   d="m 0,0 h 1.097 c 0,-11.517 6.787,-16.933 15.013,-16.933 6.582,0 11.312,4.182 11.312,10.352 0,7.129 -3.702,9.255 -11.586,10.49 C 5.073,5.623 0,7.405 0,18.922 c 0,7.817 5.142,13.505 12.82,13.505 7.061,0 9.735,-4.18 12.065,-4.18 1.577,0 1.783,1.712 1.989,2.606 H 27.97 V 16.454 h -1.096 c -0.618,7.817 -4.868,14.878 -14.054,14.878 -5.827,0 -9.941,-3.839 -9.941,-10.146 0,-6.171 2.331,-7.542 13.711,-9.601 10.009,-1.781 14.122,-5.003 14.122,-13.916 0,-8.981 -4.935,-15.699 -14.876,-15.699 -6.855,0 -10.489,3.565 -13.025,3.565 -1.645,0 -1.714,-1.714 -1.714,-2.879 H 0 Z"
                   style="fill:#231f20;fill-opacity:1;fill-rule:nonzero;stroke:none"
                   id="path9442" />
              </g>
              <path
                 d="m 272.847,901.917 h 1.075 v -12.562 h -1.075 z"
                 style="fill:#231f20;fill-opacity:1;fill-rule:nonzero;stroke:none"
                 id="path9444" />
              <path
                 d="m 255.833,916.635 h 1.074 V 851.31 h -1.074 z"
                 style="fill:#231f20;fill-opacity:1;fill-rule:nonzero;stroke:none"
                 id="path9446" />
              <g
                 id="g9448"
                 transform="translate(288.3257,889.3555)">
                <path
                   d="M 0,0 -7.91,10.79 V 0 h -1.074 v 12.562 h 1.092 L -0.019,1.919 V 12.562 H 1.053 V 0 Z"
                   style="fill:#231f20;fill-opacity:1;fill-rule:nonzero;stroke:none"
                   id="path9450" />
              </g>
              <g
                 id="g9452"
                 transform="translate(294.1563,891.1255)">
                <path
                   d="m 0,0 0.698,0.809 c 0.81,-0.923 2.128,-1.826 3.935,-1.826 2.561,0 3.296,1.432 3.296,2.505 0,3.691 -7.532,1.771 -7.532,6.158 0,2.053 1.844,3.351 4.122,3.351 1.867,0 3.296,-0.657 4.257,-1.768 L 8.06,8.438 C 7.156,9.529 5.876,10.02 4.463,10.02 2.788,10.02 1.525,9.058 1.525,7.701 1.525,4.482 9.06,6.253 9.06,1.563 9.06,-0.057 7.985,-1.997 4.595,-1.997 2.524,-1.997 0.961,-1.147 0,0"
                   style="fill:#231f20;fill-opacity:1;fill-rule:nonzero;stroke:none"
                   id="path9454" />
              </g>
              <g
                 id="g9456"
                 transform="translate(311.2891,889.3555)">
                <path
                   d="m 0,0 v 11.583 h -4.105 v 0.979 H 5.198 V 11.583 H 1.092 V 0 Z"
                   style="fill:#231f20;fill-opacity:1;fill-rule:nonzero;stroke:none"
                   id="path9458" />
              </g>
              <path
                 d="m 321.058,901.917 h 1.074 v -12.562 h -1.074 z"
                 style="fill:#231f20;fill-opacity:1;fill-rule:nonzero;stroke:none"
                 id="path9460" />
              <g
                 id="g9462"
                 transform="translate(330.8115,889.3555)">
                <path
                   d="m 0,0 v 11.583 h -4.106 v 0.979 H 5.198 V 11.583 H 1.092 V 0 Z"
                   style="fill:#231f20;fill-opacity:1;fill-rule:nonzero;stroke:none"
                   id="path9464" />
              </g>
              <g
                 id="g9466"
                 transform="translate(340.5801,894.1753)">
                <path
                   d="M 0,0 V 7.742 H 1.094 V 0.02 c 0,-2.542 1.336,-4.086 3.802,-4.086 2.469,0 3.805,1.544 3.805,4.086 V 7.742 H 9.793 V 0 C 9.793,-3.106 8.137,-5.046 4.896,-5.046 1.677,-5.046 0,-3.086 0,0"
                   style="fill:#231f20;fill-opacity:1;fill-rule:nonzero;stroke:none"
                   id="path9468" />
              </g>
              <g
                 id="g9470"
                 transform="translate(358.8613,889.3555)">
                <path
                   d="m 0,0 v 11.583 h -4.106 v 0.979 H 5.199 V 11.583 H 1.094 V 0 Z"
                   style="fill:#231f20;fill-opacity:1;fill-rule:nonzero;stroke:none"
                   id="path9472" />
              </g>
              <g
                 id="g9474"
                 transform="translate(368.5557,889.3555)">
                <path
                   d="M 0,0 V 12.562 H 7.966 V 11.583 H 1.073 V 6.929 H 7.835 V 5.952 H 1.073 V 0.979 H 7.966 V 0 Z"
                   style="fill:#231f20;fill-opacity:1;fill-rule:nonzero;stroke:none"
                   id="path9476" />
              </g>
              <g
                 id="g9478"
                 transform="translate(388.7559,889.3555)">
                <path
                   d="M 0,0 V 12.562 H 7.965 V 11.583 H 1.072 V 6.929 H 7.833 V 5.952 H 1.072 V 0 Z"
                   style="fill:#231f20;fill-opacity:1;fill-rule:nonzero;stroke:none"
                   id="path9480" />
              </g>
              <g
                 id="g9482"
                 transform="translate(411.9141,895.6255)">
                <path
                   d="m 0,0 c 0,3.185 -1.959,5.52 -4.972,5.52 -3.032,0 -4.97,-2.335 -4.97,-5.52 0,-3.164 1.938,-5.517 4.97,-5.517 C -1.959,-5.517 0,-3.164 0,0 m -11.072,0 c 0,3.674 2.409,6.497 6.1,6.497 3.673,0 6.104,-2.823 6.104,-6.497 0,-3.672 -2.431,-6.497 -6.104,-6.497 -3.691,0 -6.1,2.825 -6.1,6.497"
                   style="fill:#231f20;fill-opacity:1;fill-rule:nonzero;stroke:none"
                   id="path9484" />
              </g>
              <g
                 id="g9486"
                 transform="translate(425.4297,898.2446)">
                <path
                   d="m 0,0 c 0,1.582 -1.109,2.693 -2.786,2.693 h -3.523 v -5.405 h 3.523 C -1.109,-2.712 0,-1.582 0,0 m -0.018,-8.889 -3.523,5.198 H -6.309 V -8.889 H -7.383 V 3.672 h 4.69 c 2.166,0 3.825,-1.374 3.825,-3.672 0,-2.278 -1.603,-3.542 -3.486,-3.616 l 3.635,-5.273 z"
                   style="fill:#231f20;fill-opacity:1;fill-rule:nonzero;stroke:none"
                   id="path9488" />
              </g>
              <g
                 id="g9490"
                 transform="translate(277.3862,877.4604)">
                <path
                   d="m 0,0 -2.975,-7.345 h 5.931 z m 4.556,-11.413 -1.242,3.089 h -6.648 l -1.244,-3.089 H -5.819 L -0.68,1.149 h 1.339 l 5.142,-12.562 z"
                   style="fill:#231f20;fill-opacity:1;fill-rule:nonzero;stroke:none"
                   id="path9492" />
              </g>
              <g
                 id="g9494"
                 transform="translate(296.6084,872.3188)">
                <path
                   d="M 0,0 C 0,2.938 -1.883,5.311 -5.217,5.311 H -8.156 V -5.29 h 2.939 C -1.904,-5.29 0,-2.938 0,0 M -9.229,-6.271 V 6.291 h 4.012 c 3.899,0 6.345,-2.843 6.345,-6.291 0,-3.485 -2.446,-6.271 -6.345,-6.271 z"
                   style="fill:#231f20;fill-opacity:1;fill-rule:nonzero;stroke:none"
                   id="path9496" />
              </g>
              <g
                 id="g9498"
                 transform="translate(306.2446,866.0479)">
                <path
                   d="m 0,0 -5.142,12.562 h 1.243 L 0.678,1.204 5.235,12.562 H 6.479 L 1.337,0 Z"
                   style="fill:#231f20;fill-opacity:1;fill-rule:nonzero;stroke:none"
                   id="path9500" />
              </g>
              <g
                 id="g9502"
                 transform="translate(320.3828,877.4604)">
                <path
                   d="m 0,0 -2.977,-7.345 h 5.934 z m 4.557,-11.413 -1.243,3.089 h -6.649 l -1.243,-3.089 H -5.82 l 5.141,12.562 h 1.338 l 5.142,-12.562 z"
                   style="fill:#231f20;fill-opacity:1;fill-rule:nonzero;stroke:none"
                   id="path9504" />
              </g>
              <g
                 id="g9506"
                 transform="translate(339.3594,866.0479)">
                <path
                   d="M 0,0 -7.91,10.791 V 0 h -1.073 v 12.562 h 1.092 L -0.019,1.92 V 12.562 H 1.055 V 0 Z"
                   style="fill:#231f20;fill-opacity:1;fill-rule:nonzero;stroke:none"
                   id="path9508" />
              </g>
              <g
                 id="g9510"
                 transform="translate(345.4189,872.3188)">
                <path
                   d="m 0,0 c 0,3.861 2.806,6.497 6.365,6.497 1.995,0 3.521,-0.885 4.577,-2.221 L 10.036,3.69 C 9.246,4.784 7.872,5.517 6.365,5.517 3.425,5.517 1.129,3.277 1.129,0 c 0,-3.239 2.296,-5.517 5.236,-5.517 1.507,0 2.881,0.733 3.671,1.827 L 10.96,-4.256 C 9.83,-5.631 8.36,-6.496 6.365,-6.496 2.806,-6.496 0,-3.86 0,0"
                   style="fill:#231f20;fill-opacity:1;fill-rule:nonzero;stroke:none"
                   id="path9512" />
              </g>
              <g
                 id="g9514"
                 transform="translate(360.875,866.0479)">
                <path
                   d="m 0,0 v 12.562 h 7.965 v -0.98 H 1.071 V 6.931 H 7.834 V 5.952 H 1.071 V 0.979 H 7.965 V 0 Z"
                   style="fill:#231f20;fill-opacity:1;fill-rule:nonzero;stroke:none"
                   id="path9516" />
              </g>
              <g
                 id="g9518"
                 transform="translate(383.0732,872.3188)">
                <path
                   d="M 0,0 C 0,2.938 -1.884,5.311 -5.218,5.311 H -8.154 V -5.29 h 2.936 C -1.903,-5.29 0,-2.938 0,0 M -9.229,-6.271 V 6.291 h 4.011 C -1.32,6.291 1.13,3.448 1.13,0 c 0,-3.485 -2.45,-6.271 -6.348,-6.271 z"
                   style="fill:#231f20;fill-opacity:1;fill-rule:nonzero;stroke:none"
                   id="path9520" />
              </g>
              <g
                 id="g9522"
                 transform="translate(395.7559,867.8179)">
                <path
                   d="m 0,0 0.697,0.811 c 0.809,-0.924 2.129,-1.827 3.937,-1.827 2.561,0 3.296,1.431 3.296,2.505 0,3.691 -7.534,1.768 -7.534,6.156 0,2.055 1.845,3.353 4.124,3.353 1.867,0 3.296,-0.659 4.258,-1.771 L 8.062,8.436 C 7.156,9.529 5.878,10.018 4.465,10.018 2.788,10.018 1.527,9.058 1.527,7.703 1.527,4.482 9.06,6.252 9.06,1.563 9.06,-0.056 7.987,-1.995 4.597,-1.995 2.524,-1.995 0.961,-1.148 0,0"
                   style="fill:#231f20;fill-opacity:1;fill-rule:nonzero;stroke:none"
                   id="path9524" />
              </g>
              <g
                 id="g9526"
                 transform="translate(412.8887,866.0479)">
                <path
                   d="m 0,0 v 11.582 h -4.104 v 0.98 h 9.302 v -0.98 H 1.094 V 0 Z"
                   style="fill:#231f20;fill-opacity:1;fill-rule:nonzero;stroke:none"
                   id="path9528" />
              </g>
              <g
                 id="g9530"
                 transform="translate(422.6592,870.8696)">
                <path
                   d="M 0,0 V 7.74 H 1.092 V 0.019 c 0,-2.541 1.337,-4.087 3.804,-4.087 2.467,0 3.805,1.546 3.805,4.087 V 7.74 H 9.793 V 0 C 9.793,-3.108 8.136,-5.048 4.896,-5.048 1.675,-5.048 0,-3.09 0,0"
                   style="fill:#231f20;fill-opacity:1;fill-rule:nonzero;stroke:none"
                   id="path9532" />
              </g>
              <g
                 id="g9534"
                 transform="translate(447.1543,872.3188)">
                <path
                   d="M 0,0 C 0,2.938 -1.885,5.311 -5.215,5.311 H -8.154 V -5.29 h 2.939 C -1.902,-5.29 0,-2.938 0,0 M -9.229,-6.271 V 6.291 h 4.014 c 3.897,0 6.346,-2.843 6.346,-6.291 0,-3.485 -2.449,-6.271 -6.346,-6.271 z"
                   style="fill:#231f20;fill-opacity:1;fill-rule:nonzero;stroke:none"
                   id="path9536" />
              </g>
              <g
                 id="g9538"
                 transform="translate(456.2637,866.0479)">
                <path
                   d="m 0,0 v 5.368 l -4.99,7.194 h 1.299 L 0.547,6.384 4.783,12.562 H 6.084 L 1.092,5.368 V 0 Z"
                   style="fill:#231f20;fill-opacity:1;fill-rule:nonzero;stroke:none"
                   id="path9540" />
              </g>
            </g>
          </g>
        </g>
      </g>
    </g>
  </g>
</svg>
