<?xml version="1.0" encoding="UTF-8"?>
<svg xmlns="http://www.w3.org/2000/svg" xmlns:xlink="http://www.w3.org/1999/xlink" width="353pt" height="353pt" viewBox="0 0 353 353" version="1.1">
<g id="surface56">
<path style="fill:none;stroke-width:2;stroke-linecap:butt;stroke-linejoin:miter;stroke:rgb(99.998474%,50%,50%);stroke-opacity:0.7;stroke-miterlimit:3.25;" d="M 98.542969 35.183594 L 344.710938 177.308594 "/>
<path style="fill:none;stroke-width:2;stroke-linecap:butt;stroke-linejoin:miter;stroke:rgb(99.998474%,50%,50%);stroke-opacity:0.7;stroke-miterlimit:3.25;" d="M 98.925781 32.292969 L 175.820312 11.6875 "/>
<path style="fill:none;stroke-width:2;stroke-linecap:butt;stroke-linejoin:miter;stroke:rgb(99.998474%,50%,50%);stroke-opacity:0.7;stroke-miterlimit:3.25;" d="M 32.582031 98.636719 L 11.976562 175.53125 "/>
<path style="fill:none;stroke-width:2;stroke-linecap:butt;stroke-linejoin:miter;stroke:rgb(99.998474%,50%,50%);stroke-opacity:0.7;stroke-miterlimit:3.25;" d="M 37.375 94.957031 L 321.625 94.957031 "/>
<path style="fill:none;stroke-width:2;stroke-linecap:butt;stroke-linejoin:miter;stroke:rgb(99.998474%,50%,50%);stroke-opacity:0.7;stroke-miterlimit:3.25;" d="M 11.976562 182.894531 L 32.582031 259.789062 "/>
<path style="fill:none;stroke-width:2;stroke-linecap:butt;stroke-linejoin:miter;stroke:rgb(99.998474%,50%,50%);stroke-opacity:0.7;stroke-miterlimit:3.25;" d="M 37.375 263.46875 L 321.625 263.46875 "/>
<path style="fill:none;stroke-width:2;stroke-linecap:butt;stroke-linejoin:miter;stroke:rgb(99.998474%,50%,50%);stroke-opacity:0.7;stroke-miterlimit:3.25;" d="M 98.925781 326.132812 L 175.820312 346.738281 "/>
<path style="fill:none;stroke-width:2;stroke-linecap:butt;stroke-linejoin:miter;stroke:rgb(99.998474%,50%,50%);stroke-opacity:0.7;stroke-miterlimit:3.25;" d="M 98.542969 323.242188 L 344.710938 181.117188 "/>
<path style="fill:none;stroke-width:2;stroke-linecap:butt;stroke-linejoin:miter;stroke:rgb(99.998474%,50%,50%);stroke-opacity:0.7;stroke-miterlimit:3.25;" d="M 183.179688 346.738281 L 260.074219 326.132812 "/>
<path style="fill:none;stroke-width:2;stroke-linecap:butt;stroke-linejoin:miter;stroke:rgb(99.998474%,50%,50%);stroke-opacity:0.7;stroke-miterlimit:3.25;" d="M 263.753906 321.335938 L 263.753906 37.089844 "/>
<path style="fill:none;stroke-width:2;stroke-linecap:butt;stroke-linejoin:miter;stroke:rgb(99.998474%,50%,50%);stroke-opacity:0.7;stroke-miterlimit:3.25;" d="M 323.527344 260.167969 L 181.40625 14.003906 "/>
<path style="fill:none;stroke-width:2;stroke-linecap:butt;stroke-linejoin:miter;stroke:rgb(99.998474%,50%,50%);stroke-opacity:0.7;stroke-miterlimit:3.25;" d="M 322.738281 92.261719 L 266.449219 35.972656 "/>
<path style="fill-rule:evenodd;fill:rgb(63.998413%,70.399475%,79.998779%);fill-opacity:1;stroke-width:1;stroke-linecap:square;stroke-linejoin:miter;stroke:rgb(0%,0%,0%);stroke-opacity:0.7;stroke-miterlimit:3.25;" d="M 98.808594 33 C 98.808594 31.988281 98.410156 31.019531 97.695312 30.304688 C 96.980469 29.589844 96.011719 29.191406 95 29.191406 C 93.988281 29.191406 93.019531 29.589844 92.304688 30.304688 C 91.589844 31.019531 91.191406 31.988281 91.191406 33 C 91.191406 34.011719 91.589844 34.980469 92.304688 35.695312 C 93.019531 36.410156 93.988281 36.808594 95 36.808594 C 96.011719 36.808594 96.980469 36.410156 97.695312 35.695312 C 98.410156 34.980469 98.808594 34.011719 98.808594 33 Z M 98.808594 33 "/>
<path style="fill-rule:evenodd;fill:rgb(63.998413%,70.399475%,79.998779%);fill-opacity:1;stroke-width:1;stroke-linecap:square;stroke-linejoin:miter;stroke:rgb(0%,0%,0%);stroke-opacity:0.7;stroke-miterlimit:3.25;" d="M 37.808594 95 C 37.808594 93.988281 37.410156 93.019531 36.695312 92.304688 C 35.980469 91.589844 35.011719 91.191406 34 91.191406 C 32.988281 91.191406 32.019531 91.589844 31.304688 92.304688 C 30.589844 93.019531 30.191406 93.988281 30.191406 95 C 30.191406 96.011719 30.589844 96.980469 31.304688 97.695312 C 32.019531 98.410156 32.988281 98.808594 34 98.808594 C 35.011719 98.808594 35.980469 98.410156 36.695312 97.695312 C 37.410156 96.980469 37.808594 96.011719 37.808594 95 Z M 37.808594 95 "/>
<path style="fill-rule:evenodd;fill:rgb(63.998413%,70.399475%,79.998779%);fill-opacity:1;stroke-width:1;stroke-linecap:square;stroke-linejoin:miter;stroke:rgb(0%,0%,0%);stroke-opacity:0.7;stroke-miterlimit:3.25;" d="M 14.808594 179 C 14.808594 177.988281 14.410156 177.019531 13.695312 176.304688 C 12.980469 175.589844 12.011719 175.191406 11 175.191406 C 9.988281 175.191406 9.019531 175.589844 8.304688 176.304688 C 7.589844 177.019531 7.191406 177.988281 7.191406 179 C 7.191406 180.011719 7.589844 180.980469 8.304688 181.695312 C 9.019531 182.410156 9.988281 182.808594 11 182.808594 C 12.011719 182.808594 12.980469 182.410156 13.695312 181.695312 C 14.410156 180.980469 14.808594 180.011719 14.808594 179 Z M 14.808594 179 "/>
<path style="fill-rule:evenodd;fill:rgb(63.998413%,70.399475%,79.998779%);fill-opacity:1;stroke-width:1;stroke-linecap:square;stroke-linejoin:miter;stroke:rgb(0%,0%,0%);stroke-opacity:0.7;stroke-miterlimit:3.25;" d="M 37.808594 263 C 37.808594 261.988281 37.410156 261.019531 36.695312 260.304688 C 35.980469 259.589844 35.011719 259.191406 34 259.191406 C 32.988281 259.191406 32.019531 259.589844 31.304688 260.304688 C 30.589844 261.019531 30.191406 261.988281 30.191406 263 C 30.191406 264.011719 30.589844 264.980469 31.304688 265.695312 C 32.019531 266.410156 32.988281 266.808594 34 266.808594 C 35.011719 266.808594 35.980469 266.410156 36.695312 265.695312 C 37.410156 264.980469 37.808594 264.011719 37.808594 263 Z M 37.808594 263 "/>
<path style="fill-rule:evenodd;fill:rgb(63.998413%,70.399475%,79.998779%);fill-opacity:1;stroke-width:1;stroke-linecap:square;stroke-linejoin:miter;stroke:rgb(0%,0%,0%);stroke-opacity:0.7;stroke-miterlimit:3.25;" d="M 98.808594 325 C 98.808594 323.988281 98.410156 323.019531 97.695312 322.304688 C 96.980469 321.589844 96.011719 321.191406 95 321.191406 C 93.988281 321.191406 93.019531 321.589844 92.304688 322.304688 C 91.589844 323.019531 91.191406 323.988281 91.191406 325 C 91.191406 326.011719 91.589844 326.980469 92.304688 327.695312 C 93.019531 328.410156 93.988281 328.808594 95 328.808594 C 96.011719 328.808594 96.980469 328.410156 97.695312 327.695312 C 98.410156 326.980469 98.808594 326.011719 98.808594 325 Z M 98.808594 325 "/>
<path style="fill-rule:evenodd;fill:rgb(63.998413%,70.399475%,79.998779%);fill-opacity:1;stroke-width:1;stroke-linecap:square;stroke-linejoin:miter;stroke:rgb(0%,0%,0%);stroke-opacity:0.7;stroke-miterlimit:3.25;" d="M 183.808594 348 C 183.808594 346.988281 183.410156 346.019531 182.695312 345.304688 C 181.980469 344.589844 181.011719 344.191406 180 344.191406 C 178.988281 344.191406 178.019531 344.589844 177.304688 345.304688 C 176.589844 346.019531 176.191406 346.988281 176.191406 348 C 176.191406 349.011719 176.589844 349.980469 177.304688 350.695312 C 178.019531 351.410156 178.988281 351.808594 180 351.808594 C 181.011719 351.808594 181.980469 351.410156 182.695312 350.695312 C 183.410156 349.980469 183.808594 349.011719 183.808594 348 Z M 183.808594 348 "/>
<path style="fill-rule:evenodd;fill:rgb(63.998413%,70.399475%,79.998779%);fill-opacity:1;stroke-width:1;stroke-linecap:square;stroke-linejoin:miter;stroke:rgb(0%,0%,0%);stroke-opacity:0.7;stroke-miterlimit:3.25;" d="M 267.808594 325 C 267.808594 323.988281 267.410156 323.019531 266.695312 322.304688 C 265.980469 321.589844 265.011719 321.191406 264 321.191406 C 262.988281 321.191406 262.019531 321.589844 261.304688 322.304688 C 260.589844 323.019531 260.191406 323.988281 260.191406 325 C 260.191406 326.011719 260.589844 326.980469 261.304688 327.695312 C 262.019531 328.410156 262.988281 328.808594 264 328.808594 C 265.011719 328.808594 265.980469 328.410156 266.695312 327.695312 C 267.410156 326.980469 267.808594 326.011719 267.808594 325 Z M 267.808594 325 "/>
<path style="fill-rule:evenodd;fill:rgb(63.998413%,70.399475%,79.998779%);fill-opacity:1;stroke-width:1;stroke-linecap:square;stroke-linejoin:miter;stroke:rgb(0%,0%,0%);stroke-opacity:0.7;stroke-miterlimit:3.25;" d="M 328.808594 263 C 328.808594 261.988281 328.410156 261.019531 327.695312 260.304688 C 326.980469 259.589844 326.011719 259.191406 325 259.191406 C 323.988281 259.191406 323.019531 259.589844 322.304688 260.304688 C 321.589844 261.019531 321.191406 261.988281 321.191406 263 C 321.191406 264.011719 321.589844 264.980469 322.304688 265.695312 C 323.019531 266.410156 323.988281 266.808594 325 266.808594 C 326.011719 266.808594 326.980469 266.410156 327.695312 265.695312 C 328.410156 264.980469 328.808594 264.011719 328.808594 263 Z M 328.808594 263 "/>
<path style="fill-rule:evenodd;fill:rgb(63.998413%,70.399475%,79.998779%);fill-opacity:1;stroke-width:1;stroke-linecap:square;stroke-linejoin:miter;stroke:rgb(0%,0%,0%);stroke-opacity:0.7;stroke-miterlimit:3.25;" d="M 351.808594 179 C 351.808594 177.988281 351.410156 177.019531 350.695312 176.304688 C 349.980469 175.589844 349.011719 175.191406 348 175.191406 C 346.988281 175.191406 346.019531 175.589844 345.304688 176.304688 C 344.589844 177.019531 344.191406 177.988281 344.191406 179 C 344.191406 180.011719 344.589844 180.980469 345.304688 181.695312 C 346.019531 182.410156 346.988281 182.808594 348 182.808594 C 349.011719 182.808594 349.980469 182.410156 350.695312 181.695312 C 351.410156 180.980469 351.808594 180.011719 351.808594 179 Z M 351.808594 179 "/>
<path style="fill-rule:evenodd;fill:rgb(63.998413%,70.399475%,79.998779%);fill-opacity:1;stroke-width:1;stroke-linecap:square;stroke-linejoin:miter;stroke:rgb(0%,0%,0%);stroke-opacity:0.7;stroke-miterlimit:3.25;" d="M 328.808594 95 C 328.808594 93.988281 328.410156 93.019531 327.695312 92.304688 C 326.980469 91.589844 326.011719 91.191406 325 91.191406 C 323.988281 91.191406 323.019531 91.589844 322.304688 92.304688 C 321.589844 93.019531 321.191406 93.988281 321.191406 95 C 321.191406 96.011719 321.589844 96.980469 322.304688 97.695312 C 323.019531 98.410156 323.988281 98.808594 325 98.808594 C 326.011719 98.808594 326.980469 98.410156 327.695312 97.695312 C 328.410156 96.980469 328.808594 96.011719 328.808594 95 Z M 328.808594 95 "/>
<path style="fill-rule:evenodd;fill:rgb(63.998413%,70.399475%,79.998779%);fill-opacity:1;stroke-width:1;stroke-linecap:square;stroke-linejoin:miter;stroke:rgb(0%,0%,0%);stroke-opacity:0.7;stroke-miterlimit:3.25;" d="M 267.808594 33 C 267.808594 31.988281 267.410156 31.019531 266.695312 30.304688 C 265.980469 29.589844 265.011719 29.191406 264 29.191406 C 262.988281 29.191406 262.019531 29.589844 261.304688 30.304688 C 260.589844 31.019531 260.191406 31.988281 260.191406 33 C 260.191406 34.011719 260.589844 34.980469 261.304688 35.695312 C 262.019531 36.410156 262.988281 36.808594 264 36.808594 C 265.011719 36.808594 265.980469 36.410156 266.695312 35.695312 C 267.410156 34.980469 267.808594 34.011719 267.808594 33 Z M 267.808594 33 "/>
<path style="fill-rule:evenodd;fill:rgb(63.998413%,70.399475%,79.998779%);fill-opacity:1;stroke-width:1;stroke-linecap:square;stroke-linejoin:miter;stroke:rgb(0%,0%,0%);stroke-opacity:0.7;stroke-miterlimit:3.25;" d="M 183.808594 11 C 183.808594 9.988281 183.410156 9.019531 182.695312 8.304688 C 181.980469 7.589844 181.011719 7.191406 180 7.191406 C 178.988281 7.191406 178.019531 7.589844 177.304688 8.304688 C 176.589844 9.019531 176.191406 9.988281 176.191406 11 C 176.191406 12.011719 176.589844 12.980469 177.304688 13.695312 C 178.019531 14.410156 178.988281 14.808594 180 14.808594 C 181.011719 14.808594 181.980469 14.410156 182.695312 13.695312 C 183.410156 12.980469 183.808594 12.011719 183.808594 11 Z M 183.808594 11 "/>
</g>
</svg>
