<?xml version="1.0" encoding="UTF-8"?>
<svg xmlns="http://www.w3.org/2000/svg" xmlns:xlink="http://www.w3.org/1999/xlink" width="353pt" height="348pt" viewBox="0 0 353 348" version="1.1">
<g id="surface42">
<path style="fill:none;stroke-width:2;stroke-linecap:butt;stroke-linejoin:miter;stroke:rgb(0%,66.665649%,0%);stroke-opacity:0.7;stroke-miterlimit:3.25;" d="M 67.609375 54.0625 L 12.917969 148.789062 "/>
<path style="fill:none;stroke-width:2;stroke-linecap:butt;stroke-linejoin:miter;stroke:rgb(0%,66.665649%,0%);stroke-opacity:0.7;stroke-miterlimit:3.25;" d="M 73.121094 49.4375 L 175.90625 12.027344 "/>
<path style="fill:none;stroke-width:2;stroke-linecap:butt;stroke-linejoin:miter;stroke:rgb(0%,66.665649%,0%);stroke-opacity:0.7;stroke-miterlimit:3.25;" d="M 13.9375 154.5625 L 235.085938 340.128906 "/>
<path style="fill:none;stroke-width:2;stroke-linecap:butt;stroke-linejoin:miter;stroke:rgb(0%,66.665649%,0%);stroke-opacity:0.7;stroke-miterlimit:3.25;" d="M 34.261719 269.816406 L 118.050781 340.128906 "/>
<path style="fill:none;stroke-width:2;stroke-linecap:butt;stroke-linejoin:miter;stroke:rgb(0%,66.665649%,0%);stroke-opacity:0.7;stroke-miterlimit:3.25;" d="M 35.15625 267.359375 L 323.84375 267.359375 "/>
<path style="fill:none;stroke-width:2;stroke-linecap:butt;stroke-linejoin:miter;stroke:rgb(0%,66.665649%,0%);stroke-opacity:0.7;stroke-miterlimit:3.25;" d="M 123.914062 340.128906 L 345.0625 154.5625 "/>
<path style="fill:none;stroke-width:2;stroke-linecap:butt;stroke-linejoin:miter;stroke:rgb(0%,66.665649%,0%);stroke-opacity:0.7;stroke-miterlimit:3.25;" d="M 240.949219 340.128906 L 324.738281 269.816406 "/>
<path style="fill:none;stroke-width:2;stroke-linecap:butt;stroke-linejoin:miter;stroke:rgb(0%,66.665649%,0%);stroke-opacity:0.7;stroke-miterlimit:3.25;" d="M 346.082031 148.789062 L 291.390625 54.0625 "/>
<path style="fill:none;stroke-width:2;stroke-linecap:butt;stroke-linejoin:miter;stroke:rgb(0%,66.665649%,0%);stroke-opacity:0.7;stroke-miterlimit:3.25;" d="M 285.878906 49.4375 L 183.09375 12.027344 "/>
<path style="fill-rule:evenodd;fill:rgb(63.998413%,70.399475%,79.998779%);fill-opacity:1;stroke-width:1;stroke-linecap:square;stroke-linejoin:miter;stroke:rgb(0%,0%,0%);stroke-opacity:0.7;stroke-miterlimit:3.25;" d="M 73.828125 51 C 73.828125 49.984375 73.421875 49.011719 72.707031 48.292969 C 71.988281 47.578125 71.015625 47.171875 70 47.171875 C 68.984375 47.171875 68.011719 47.578125 67.292969 48.292969 C 66.578125 49.011719 66.171875 49.984375 66.171875 51 C 66.171875 52.015625 66.578125 52.988281 67.292969 53.707031 C 68.011719 54.421875 68.984375 54.828125 70 54.828125 C 71.015625 54.828125 71.988281 54.421875 72.707031 53.707031 C 73.421875 52.988281 73.828125 52.015625 73.828125 51 Z M 73.828125 51 "/>
<path style="fill-rule:evenodd;fill:rgb(63.998413%,70.399475%,79.998779%);fill-opacity:1;stroke-width:1;stroke-linecap:square;stroke-linejoin:miter;stroke:rgb(0%,0%,0%);stroke-opacity:0.7;stroke-miterlimit:3.25;" d="M 14.828125 152 C 14.828125 150.984375 14.421875 150.011719 13.707031 149.292969 C 12.988281 148.578125 12.015625 148.171875 11 148.171875 C 9.984375 148.171875 9.011719 148.578125 8.292969 149.292969 C 7.578125 150.011719 7.171875 150.984375 7.171875 152 C 7.171875 153.015625 7.578125 153.988281 8.292969 154.707031 C 9.011719 155.421875 9.984375 155.828125 11 155.828125 C 12.015625 155.828125 12.988281 155.421875 13.707031 154.707031 C 14.421875 153.988281 14.828125 153.015625 14.828125 152 Z M 14.828125 152 "/>
<path style="fill-rule:evenodd;fill:rgb(63.998413%,70.399475%,79.998779%);fill-opacity:1;stroke-width:1;stroke-linecap:square;stroke-linejoin:miter;stroke:rgb(0%,0%,0%);stroke-opacity:0.7;stroke-miterlimit:3.25;" d="M 34.828125 267 C 34.828125 265.984375 34.421875 265.011719 33.707031 264.292969 C 32.988281 263.578125 32.015625 263.171875 31 263.171875 C 29.984375 263.171875 29.011719 263.578125 28.292969 264.292969 C 27.578125 265.011719 27.171875 265.984375 27.171875 267 C 27.171875 268.015625 27.578125 268.988281 28.292969 269.707031 C 29.011719 270.421875 29.984375 270.828125 31 270.828125 C 32.015625 270.828125 32.988281 270.421875 33.707031 269.707031 C 34.421875 268.988281 34.828125 268.015625 34.828125 267 Z M 34.828125 267 "/>
<path style="fill-rule:evenodd;fill:rgb(63.998413%,70.399475%,79.998779%);fill-opacity:1;stroke-width:1;stroke-linecap:square;stroke-linejoin:miter;stroke:rgb(0%,0%,0%);stroke-opacity:0.7;stroke-miterlimit:3.25;" d="M 124.828125 343 C 124.828125 341.984375 124.421875 341.011719 123.707031 340.292969 C 122.988281 339.578125 122.015625 339.171875 121 339.171875 C 119.984375 339.171875 119.011719 339.578125 118.292969 340.292969 C 117.578125 341.011719 117.171875 341.984375 117.171875 343 C 117.171875 344.015625 117.578125 344.988281 118.292969 345.707031 C 119.011719 346.421875 119.984375 346.828125 121 346.828125 C 122.015625 346.828125 122.988281 346.421875 123.707031 345.707031 C 124.421875 344.988281 124.828125 344.015625 124.828125 343 Z M 124.828125 343 "/>
<path style="fill-rule:evenodd;fill:rgb(63.998413%,70.399475%,79.998779%);fill-opacity:1;stroke-width:1;stroke-linecap:square;stroke-linejoin:miter;stroke:rgb(0%,0%,0%);stroke-opacity:0.7;stroke-miterlimit:3.25;" d="M 241.828125 343 C 241.828125 341.984375 241.421875 341.011719 240.707031 340.292969 C 239.988281 339.578125 239.015625 339.171875 238 339.171875 C 236.984375 339.171875 236.011719 339.578125 235.292969 340.292969 C 234.578125 341.011719 234.171875 341.984375 234.171875 343 C 234.171875 344.015625 234.578125 344.988281 235.292969 345.707031 C 236.011719 346.421875 236.984375 346.828125 238 346.828125 C 239.015625 346.828125 239.988281 346.421875 240.707031 345.707031 C 241.421875 344.988281 241.828125 344.015625 241.828125 343 Z M 241.828125 343 "/>
<path style="fill-rule:evenodd;fill:rgb(63.998413%,70.399475%,79.998779%);fill-opacity:1;stroke-width:1;stroke-linecap:square;stroke-linejoin:miter;stroke:rgb(0%,0%,0%);stroke-opacity:0.7;stroke-miterlimit:3.25;" d="M 331.828125 267 C 331.828125 265.984375 331.421875 265.011719 330.707031 264.292969 C 329.988281 263.578125 329.015625 263.171875 328 263.171875 C 326.984375 263.171875 326.011719 263.578125 325.292969 264.292969 C 324.578125 265.011719 324.171875 265.984375 324.171875 267 C 324.171875 268.015625 324.578125 268.988281 325.292969 269.707031 C 326.011719 270.421875 326.984375 270.828125 328 270.828125 C 329.015625 270.828125 329.988281 270.421875 330.707031 269.707031 C 331.421875 268.988281 331.828125 268.015625 331.828125 267 Z M 331.828125 267 "/>
<path style="fill-rule:evenodd;fill:rgb(63.998413%,70.399475%,79.998779%);fill-opacity:1;stroke-width:1;stroke-linecap:square;stroke-linejoin:miter;stroke:rgb(0%,0%,0%);stroke-opacity:0.7;stroke-miterlimit:3.25;" d="M 351.828125 152 C 351.828125 150.984375 351.421875 150.011719 350.707031 149.292969 C 349.988281 148.578125 349.015625 148.171875 348 148.171875 C 346.984375 148.171875 346.011719 148.578125 345.292969 149.292969 C 344.578125 150.011719 344.171875 150.984375 344.171875 152 C 344.171875 153.015625 344.578125 153.988281 345.292969 154.707031 C 346.011719 155.421875 346.984375 155.828125 348 155.828125 C 349.015625 155.828125 349.988281 155.421875 350.707031 154.707031 C 351.421875 153.988281 351.828125 153.015625 351.828125 152 Z M 351.828125 152 "/>
<path style="fill-rule:evenodd;fill:rgb(63.998413%,70.399475%,79.998779%);fill-opacity:1;stroke-width:1;stroke-linecap:square;stroke-linejoin:miter;stroke:rgb(0%,0%,0%);stroke-opacity:0.7;stroke-miterlimit:3.25;" d="M 292.828125 51 C 292.828125 49.984375 292.421875 49.011719 291.707031 48.292969 C 290.988281 47.578125 290.015625 47.171875 289 47.171875 C 287.984375 47.171875 287.011719 47.578125 286.292969 48.292969 C 285.578125 49.011719 285.171875 49.984375 285.171875 51 C 285.171875 52.015625 285.578125 52.988281 286.292969 53.707031 C 287.011719 54.421875 287.984375 54.828125 289 54.828125 C 290.015625 54.828125 290.988281 54.421875 291.707031 53.707031 C 292.421875 52.988281 292.828125 52.015625 292.828125 51 Z M 292.828125 51 "/>
<path style="fill-rule:evenodd;fill:rgb(63.998413%,70.399475%,79.998779%);fill-opacity:1;stroke-width:1;stroke-linecap:square;stroke-linejoin:miter;stroke:rgb(0%,0%,0%);stroke-opacity:0.7;stroke-miterlimit:3.25;" d="M 182.828125 11 C 182.828125 9.984375 182.421875 9.011719 181.707031 8.292969 C 180.988281 7.578125 180.015625 7.171875 179 7.171875 C 177.984375 7.171875 177.011719 7.578125 176.292969 8.292969 C 175.578125 9.011719 175.171875 9.984375 175.171875 11 C 175.171875 12.015625 175.578125 12.988281 176.292969 13.707031 C 177.011719 14.421875 177.984375 14.828125 179 14.828125 C 180.015625 14.828125 180.988281 14.421875 181.707031 13.707031 C 182.421875 12.988281 182.828125 12.015625 182.828125 11 Z M 182.828125 11 "/>
</g>
</svg>
