<?xml version="1.0" encoding="UTF-8"?>
<svg xmlns="http://www.w3.org/2000/svg" xmlns:xlink="http://www.w3.org/1999/xlink" width="352pt" height="404pt" viewBox="0 0 352 404" version="1.1">
<g id="surface14">
<path style="fill:none;stroke-width:2;stroke-linecap:butt;stroke-linejoin:miter;stroke:rgb(14.99939%,28.999329%,50%);stroke-opacity:0.7;stroke-miterlimit:3.25;" d="M 11.566406 112.621094 L 11.566406 297.765625 "/>
<path style="fill:none;stroke-width:2;stroke-linecap:butt;stroke-linejoin:miter;stroke:rgb(14.99939%,28.999329%,50%);stroke-opacity:0.7;stroke-miterlimit:3.25;" d="M 13.757812 112.03125 L 177.308594 395.308594 "/>
<path style="fill:none;stroke-width:2;stroke-linecap:butt;stroke-linejoin:miter;stroke:rgb(14.99939%,28.999329%,50%);stroke-opacity:0.7;stroke-miterlimit:3.25;" d="M 15.363281 110.425781 L 343.636719 299.957031 "/>
<path style="fill:none;stroke-width:2;stroke-linecap:butt;stroke-linejoin:miter;stroke:rgb(14.99939%,28.999329%,50%);stroke-opacity:0.7;stroke-miterlimit:3.25;" d="M 15.949219 108.234375 L 343.050781 108.234375 "/>
<path style="fill:none;stroke-width:2;stroke-linecap:butt;stroke-linejoin:miter;stroke:rgb(14.99939%,28.999329%,50%);stroke-opacity:0.7;stroke-miterlimit:3.25;" d="M 15.363281 106.042969 L 175.703125 13.46875 "/>
<path style="fill:none;stroke-width:2;stroke-linecap:butt;stroke-linejoin:miter;stroke:rgb(14.99939%,28.999329%,50%);stroke-opacity:0.7;stroke-miterlimit:3.25;" d="M 15.363281 304.34375 L 175.703125 396.914062 "/>
<path style="fill:none;stroke-width:2;stroke-linecap:butt;stroke-linejoin:miter;stroke:rgb(14.99939%,28.999329%,50%);stroke-opacity:0.7;stroke-miterlimit:3.25;" d="M 15.949219 302.148438 L 343.050781 302.148438 "/>
<path style="fill:none;stroke-width:2;stroke-linecap:butt;stroke-linejoin:miter;stroke:rgb(14.99939%,28.999329%,50%);stroke-opacity:0.7;stroke-miterlimit:3.25;" d="M 15.363281 299.957031 L 343.636719 110.425781 "/>
<path style="fill:none;stroke-width:2;stroke-linecap:butt;stroke-linejoin:miter;stroke:rgb(14.99939%,28.999329%,50%);stroke-opacity:0.7;stroke-miterlimit:3.25;" d="M 13.757812 298.351562 L 177.308594 15.074219 "/>
<path style="fill:none;stroke-width:2;stroke-linecap:butt;stroke-linejoin:miter;stroke:rgb(14.99939%,28.999329%,50%);stroke-opacity:0.7;stroke-miterlimit:3.25;" d="M 183.296875 396.914062 L 343.636719 304.34375 "/>
<path style="fill:none;stroke-width:2;stroke-linecap:butt;stroke-linejoin:miter;stroke:rgb(14.99939%,28.999329%,50%);stroke-opacity:0.7;stroke-miterlimit:3.25;" d="M 181.691406 395.308594 L 345.242188 112.03125 "/>
<path style="fill:none;stroke-width:2;stroke-linecap:butt;stroke-linejoin:miter;stroke:rgb(14.99939%,28.999329%,50%);stroke-opacity:0.7;stroke-miterlimit:3.25;" d="M 179.5 394.722656 L 179.5 15.664062 "/>
<path style="fill:none;stroke-width:2;stroke-linecap:butt;stroke-linejoin:miter;stroke:rgb(14.99939%,28.999329%,50%);stroke-opacity:0.7;stroke-miterlimit:3.25;" d="M 347.433594 297.765625 L 347.433594 112.621094 "/>
<path style="fill:none;stroke-width:2;stroke-linecap:butt;stroke-linejoin:miter;stroke:rgb(14.99939%,28.999329%,50%);stroke-opacity:0.7;stroke-miterlimit:3.25;" d="M 345.242188 298.351562 L 181.691406 15.074219 "/>
<path style="fill:none;stroke-width:2;stroke-linecap:butt;stroke-linejoin:miter;stroke:rgb(14.99939%,28.999329%,50%);stroke-opacity:0.7;stroke-miterlimit:3.25;" d="M 343.636719 106.042969 L 183.296875 13.46875 "/>
<path style="fill-rule:evenodd;fill:rgb(63.998413%,70.399475%,79.998779%);fill-opacity:1;stroke-width:1;stroke-linecap:square;stroke-linejoin:miter;stroke:rgb(0%,0%,0%);stroke-opacity:0.7;stroke-miterlimit:3.25;" d="M 16.382812 108 C 16.382812 106.835938 15.921875 105.722656 15.101562 104.898438 C 14.277344 104.078125 13.164062 103.617188 12 103.617188 C 10.835938 103.617188 9.722656 104.078125 8.898438 104.898438 C 8.078125 105.722656 7.617188 106.835938 7.617188 108 C 7.617188 109.164062 8.078125 110.277344 8.898438 111.101562 C 9.722656 111.921875 10.835938 112.382812 12 112.382812 C 13.164062 112.382812 14.277344 111.921875 15.101562 111.101562 C 15.921875 110.277344 16.382812 109.164062 16.382812 108 Z M 16.382812 108 "/>
<path style="fill-rule:evenodd;fill:rgb(63.998413%,70.399475%,79.998779%);fill-opacity:1;stroke-width:1;stroke-linecap:square;stroke-linejoin:miter;stroke:rgb(0%,0%,0%);stroke-opacity:0.7;stroke-miterlimit:3.25;" d="M 16.382812 302 C 16.382812 300.835938 15.921875 299.722656 15.101562 298.898438 C 14.277344 298.078125 13.164062 297.617188 12 297.617188 C 10.835938 297.617188 9.722656 298.078125 8.898438 298.898438 C 8.078125 299.722656 7.617188 300.835938 7.617188 302 C 7.617188 303.164062 8.078125 304.277344 8.898438 305.101562 C 9.722656 305.921875 10.835938 306.382812 12 306.382812 C 13.164062 306.382812 14.277344 305.921875 15.101562 305.101562 C 15.921875 304.277344 16.382812 303.164062 16.382812 302 Z M 16.382812 302 "/>
<path style="fill-rule:evenodd;fill:rgb(63.998413%,70.399475%,79.998779%);fill-opacity:1;stroke-width:1;stroke-linecap:square;stroke-linejoin:miter;stroke:rgb(0%,0%,0%);stroke-opacity:0.7;stroke-miterlimit:3.25;" d="M 184.382812 399 C 184.382812 397.835938 183.921875 396.722656 183.101562 395.898438 C 182.277344 395.078125 181.164062 394.617188 180 394.617188 C 178.835938 394.617188 177.722656 395.078125 176.898438 395.898438 C 176.078125 396.722656 175.617188 397.835938 175.617188 399 C 175.617188 400.164062 176.078125 401.277344 176.898438 402.101562 C 177.722656 402.921875 178.835938 403.382812 180 403.382812 C 181.164062 403.382812 182.277344 402.921875 183.101562 402.101562 C 183.921875 401.277344 184.382812 400.164062 184.382812 399 Z M 184.382812 399 "/>
<path style="fill-rule:evenodd;fill:rgb(63.998413%,70.399475%,79.998779%);fill-opacity:1;stroke-width:1;stroke-linecap:square;stroke-linejoin:miter;stroke:rgb(0%,0%,0%);stroke-opacity:0.7;stroke-miterlimit:3.25;" d="M 351.382812 302 C 351.382812 300.835938 350.921875 299.722656 350.101562 298.898438 C 349.277344 298.078125 348.164062 297.617188 347 297.617188 C 345.835938 297.617188 344.722656 298.078125 343.898438 298.898438 C 343.078125 299.722656 342.617188 300.835938 342.617188 302 C 342.617188 303.164062 343.078125 304.277344 343.898438 305.101562 C 344.722656 305.921875 345.835938 306.382812 347 306.382812 C 348.164062 306.382812 349.277344 305.921875 350.101562 305.101562 C 350.921875 304.277344 351.382812 303.164062 351.382812 302 Z M 351.382812 302 "/>
<path style="fill-rule:evenodd;fill:rgb(63.998413%,70.399475%,79.998779%);fill-opacity:1;stroke-width:1;stroke-linecap:square;stroke-linejoin:miter;stroke:rgb(0%,0%,0%);stroke-opacity:0.7;stroke-miterlimit:3.25;" d="M 351.382812 108 C 351.382812 106.835938 350.921875 105.722656 350.101562 104.898438 C 349.277344 104.078125 348.164062 103.617188 347 103.617188 C 345.835938 103.617188 344.722656 104.078125 343.898438 104.898438 C 343.078125 105.722656 342.617188 106.835938 342.617188 108 C 342.617188 109.164062 343.078125 110.277344 343.898438 111.101562 C 344.722656 111.921875 345.835938 112.382812 347 112.382812 C 348.164062 112.382812 349.277344 111.921875 350.101562 111.101562 C 350.921875 110.277344 351.382812 109.164062 351.382812 108 Z M 351.382812 108 "/>
<path style="fill-rule:evenodd;fill:rgb(63.998413%,70.399475%,79.998779%);fill-opacity:1;stroke-width:1;stroke-linecap:square;stroke-linejoin:miter;stroke:rgb(0%,0%,0%);stroke-opacity:0.7;stroke-miterlimit:3.25;" d="M 184.382812 11 C 184.382812 9.835938 183.921875 8.722656 183.101562 7.898438 C 182.277344 7.078125 181.164062 6.617188 180 6.617188 C 178.835938 6.617188 177.722656 7.078125 176.898438 7.898438 C 176.078125 8.722656 175.617188 9.835938 175.617188 11 C 175.617188 12.164062 176.078125 13.277344 176.898438 14.101562 C 177.722656 14.921875 178.835938 15.382812 180 15.382812 C 181.164062 15.382812 182.277344 14.921875 183.101562 14.101562 C 183.921875 13.277344 184.382812 12.164062 184.382812 11 Z M 184.382812 11 "/>
</g>
</svg>
