<?xml version="1.0" encoding="utf-8"?>
<!-- Generator: Adobe Illustrator 21.1.0, SVG Export Plug-In . SVG Version: 6.00 Build 0)  -->
<svg version="1.1" id="Layer_1" xmlns="http://www.w3.org/2000/svg" xmlns:xlink="http://www.w3.org/1999/xlink" x="0px" y="0px"
	 viewBox="0 0 353 353" style="enable-background:new 0 0 353 353;" xml:space="preserve">
<style type="text/css">
	.st0{opacity:0.7;fill:none;stroke:#FF8080;stroke-width:2;stroke-miterlimit:3.25;enable-background:new    ;}
	.st1{fill:none;stroke:#FF8080;stroke-width:2;stroke-miterlimit:3.25;stroke-opacity:0.7;}
	.st2{fill:#A3B4CC;stroke:#000000;stroke-linecap:square;stroke-miterlimit:3.25;stroke-opacity:0.7;}
</style>
<g>
	<path class="st0" d="M60,298C109.8,179,179,95,299,60"/>
	<g id="surface7">
		<path class="st1" d="M58.9,63.6L12.4,175.7"/>
		<path class="st1" d="M13.7,176.5L176.8,13.4"/>
		<path class="st1" d="M299,298.3L180,179"/>
		<path class="st1" d="M180,179L60,60"/>
		<path class="st1" d="M61.8,294.8L178,14.2"/>
		<path class="st1" d="M182.2,345l163.1-163.1"/>
		<path class="st1" d="M181,344.2L297.2,63.6"/>
		<path class="st1" d="M300.1,294.8l46.4-112.1"/>
		<path class="st2" d="M63.8,60c0-1-0.4-2-1.1-2.7S61,56.2,60,56.2s-2,0.4-2.7,1.1S56.2,59,56.2,60s0.4,2,1.1,2.7s1.7,1.1,2.7,1.1
			s2-0.4,2.7-1.1S63.8,61,63.8,60z"/>
		<path class="st2" d="M14.8,179c0-1-0.4-2-1.1-2.7c-0.7-0.7-1.7-1.1-2.7-1.1s-2,0.4-2.7,1.1C7.6,177,7.2,178,7.2,179s0.4,2,1.1,2.7
			s1.7,1.1,2.7,1.1s2-0.4,2.7-1.1C14.4,181,14.8,180,14.8,179z"/>
		<path class="st2" d="M63.8,298c0-1-0.4-2-1.1-2.7s-1.7-1.1-2.7-1.1s-2,0.4-2.7,1.1s-1.1,1.7-1.1,2.7s0.4,2,1.1,2.7
			s1.7,1.1,2.7,1.1s2-0.4,2.7-1.1S63.8,299,63.8,298z"/>
		<path class="st2" d="M183.8,348c0-1-0.4-2-1.1-2.7s-1.7-1.1-2.7-1.1s-2,0.4-2.7,1.1s-1.1,1.7-1.1,2.7s0.4,2,1.1,2.7
			s1.7,1.1,2.7,1.1s2-0.4,2.7-1.1S183.8,349,183.8,348z"/>
		<path class="st2" d="M302.8,298c0-1-0.4-2-1.1-2.7s-1.7-1.1-2.7-1.1s-2,0.4-2.7,1.1s-1.1,1.7-1.1,2.7s0.4,2,1.1,2.7
			s1.7,1.1,2.7,1.1s2-0.4,2.7-1.1S302.8,299,302.8,298z"/>
		<path class="st2" d="M351.8,179c0-1-0.4-2-1.1-2.7s-1.7-1.1-2.7-1.1s-2,0.4-2.7,1.1s-1.1,1.7-1.1,2.7s0.4,2,1.1,2.7
			s1.7,1.1,2.7,1.1s2-0.4,2.7-1.1S351.8,180,351.8,179z"/>
		<path class="st2" d="M302.8,60c0-1-0.4-2-1.1-2.7s-1.7-1.1-2.7-1.1s-2,0.4-2.7,1.1s-1.1,1.7-1.1,2.7s0.4,2,1.1,2.7
			s1.7,1.1,2.7,1.1s2-0.4,2.7-1.1S302.8,61,302.8,60z"/>
		<path class="st2" d="M182.8,11c0-1-0.4-2-1.1-2.7C181,7.6,180,7.2,179,7.2s-2,0.4-2.7,1.1s-1.1,1.7-1.1,2.7s0.4,2,1.1,2.7
			c0.7,0.7,1.7,1.1,2.7,1.1s2-0.4,2.7-1.1C182.4,13,182.8,12,182.8,11z"/>
		<path class="st2" d="M183.8,179c0-1-0.4-2-1.1-2.7s-1.7-1.1-2.7-1.1s-2,0.4-2.7,1.1s-1.1,1.7-1.1,2.7s0.4,2,1.1,2.7
			s1.7,1.1,2.7,1.1s2-0.4,2.7-1.1S183.8,180,183.8,179z"/>
	</g>
</g>
</svg>
